<mxfile host="app.diagrams.net" modified="2020-12-07T00:34:20.653Z" agent="5.0 (Windows)" etag="qTBCzlVQPQiYkiv9QuLv" version="13.10.4" type="github">
  <diagram id="FyOOjmj2gLnmofkN0DMu" name="Page-1">
    <mxGraphModel dx="1424" dy="782" grid="1" gridSize="10" guides="1" tooltips="1" connect="1" arrows="1" fold="1" page="1" pageScale="1" pageWidth="850" pageHeight="1100" math="0" shadow="0">
      <root>
        <mxCell id="0" />
        <mxCell id="1" parent="0" />
        <mxCell id="Rky6-Vukg4qJPGLFqLiw-7" value="User" style="shape=umlActor;html=1;verticalLabelPosition=bottom;verticalAlign=top;align=center;" vertex="1" parent="1">
          <mxGeometry x="110" y="235" width="30" height="60" as="geometry" />
        </mxCell>
        <mxCell id="Rky6-Vukg4qJPGLFqLiw-10" value="register/login" style="ellipse;whiteSpace=wrap;html=1;" vertex="1" parent="1">
          <mxGeometry x="351.25" y="460" width="105" height="50" as="geometry" />
        </mxCell>
        <mxCell id="Rky6-Vukg4qJPGLFqLiw-11" value="dash board" style="ellipse;whiteSpace=wrap;html=1;" vertex="1" parent="1">
          <mxGeometry x="346.25" y="110" width="110" height="50" as="geometry" />
        </mxCell>
        <mxCell id="Rky6-Vukg4qJPGLFqLiw-13" value="search restaurent" style="ellipse;whiteSpace=wrap;html=1;" vertex="1" parent="1">
          <mxGeometry x="348.75" y="170" width="107.5" height="50" as="geometry" />
        </mxCell>
        <mxCell id="Rky6-Vukg4qJPGLFqLiw-15" value="restaurant&amp;nbsp; timing" style="ellipse;whiteSpace=wrap;html=1;" vertex="1" parent="1">
          <mxGeometry x="346.25" y="250" width="107.5" height="50" as="geometry" />
        </mxCell>
        <mxCell id="Rky6-Vukg4qJPGLFqLiw-17" value="&lt;div&gt;open&lt;/div&gt;&lt;div&gt;menu&lt;br&gt;&lt;/div&gt;" style="ellipse;whiteSpace=wrap;html=1;" vertex="1" parent="1">
          <mxGeometry x="540" y="310" width="107.5" height="40" as="geometry" />
        </mxCell>
        <mxCell id="Rky6-Vukg4qJPGLFqLiw-19" value="add IT" style="ellipse;whiteSpace=wrap;html=1;" vertex="1" parent="1">
          <mxGeometry x="347.5" y="310" width="107.5" height="40" as="geometry" />
        </mxCell>
        <mxCell id="Rky6-Vukg4qJPGLFqLiw-21" value="total costs" style="ellipse;whiteSpace=wrap;html=1;" vertex="1" parent="1">
          <mxGeometry x="347.5" y="360" width="107.5" height="40" as="geometry" />
        </mxCell>
        <mxCell id="Rky6-Vukg4qJPGLFqLiw-26" value="add restuarent" style="ellipse;whiteSpace=wrap;html=1;" vertex="1" parent="1">
          <mxGeometry x="350" y="530" width="107.5" height="40" as="geometry" />
        </mxCell>
        <mxCell id="Rky6-Vukg4qJPGLFqLiw-28" value="add food licences" style="ellipse;whiteSpace=wrap;html=1;" vertex="1" parent="1">
          <mxGeometry x="351.25" y="590" width="107.5" height="40" as="geometry" />
        </mxCell>
        <mxCell id="Rky6-Vukg4qJPGLFqLiw-30" value="add menu details" style="ellipse;whiteSpace=wrap;html=1;" vertex="1" parent="1">
          <mxGeometry x="351.25" y="650" width="107.5" height="40" as="geometry" />
        </mxCell>
        <mxCell id="Rky6-Vukg4qJPGLFqLiw-36" value="Admin" style="shape=umlActor;html=1;verticalLabelPosition=bottom;verticalAlign=top;align=center;" vertex="1" parent="1">
          <mxGeometry x="130" y="900" width="30" height="60" as="geometry" />
        </mxCell>
        <mxCell id="Rky6-Vukg4qJPGLFqLiw-40" value="verify food license" style="ellipse;whiteSpace=wrap;html=1;" vertex="1" parent="1">
          <mxGeometry x="348.75" y="840" width="107.5" height="40" as="geometry" />
        </mxCell>
        <mxCell id="Rky6-Vukg4qJPGLFqLiw-42" value="view licence" style="ellipse;whiteSpace=wrap;html=1;" vertex="1" parent="1">
          <mxGeometry x="530" y="840" width="107.5" height="40" as="geometry" />
        </mxCell>
        <mxCell id="Rky6-Vukg4qJPGLFqLiw-46" value="approve" style="ellipse;whiteSpace=wrap;html=1;" vertex="1" parent="1">
          <mxGeometry x="348.75" y="960" width="107.5" height="40" as="geometry" />
        </mxCell>
        <mxCell id="Rky6-Vukg4qJPGLFqLiw-48" value="" style="endArrow=none;html=1;exitX=1;exitY=0.3333333333333333;exitDx=0;exitDy=0;exitPerimeter=0;entryX=0;entryY=0.5;entryDx=0;entryDy=0;" edge="1" parent="1" source="Rky6-Vukg4qJPGLFqLiw-7" target="Rky6-Vukg4qJPGLFqLiw-10">
          <mxGeometry width="50" height="50" relative="1" as="geometry">
            <mxPoint x="130" y="320" as="sourcePoint" />
            <mxPoint x="340" y="100" as="targetPoint" />
          </mxGeometry>
        </mxCell>
        <mxCell id="Rky6-Vukg4qJPGLFqLiw-49" value="" style="endArrow=none;html=1;entryX=0.011;entryY=0.38;entryDx=0;entryDy=0;entryPerimeter=0;exitX=1;exitY=0.3333333333333333;exitDx=0;exitDy=0;exitPerimeter=0;" edge="1" parent="1" source="Rky6-Vukg4qJPGLFqLiw-7" target="Rky6-Vukg4qJPGLFqLiw-11">
          <mxGeometry width="50" height="50" relative="1" as="geometry">
            <mxPoint x="160" y="380" as="sourcePoint" />
            <mxPoint x="350" y="110" as="targetPoint" />
          </mxGeometry>
        </mxCell>
        <mxCell id="Rky6-Vukg4qJPGLFqLiw-50" value="" style="endArrow=none;html=1;entryX=0;entryY=0.5;entryDx=0;entryDy=0;exitX=1;exitY=0.3333333333333333;exitDx=0;exitDy=0;exitPerimeter=0;" edge="1" parent="1" source="Rky6-Vukg4qJPGLFqLiw-7" target="Rky6-Vukg4qJPGLFqLiw-13">
          <mxGeometry width="50" height="50" relative="1" as="geometry">
            <mxPoint x="180" y="396.9230769230769" as="sourcePoint" />
            <mxPoint x="349.96000000000004" y="179" as="targetPoint" />
          </mxGeometry>
        </mxCell>
        <mxCell id="Rky6-Vukg4qJPGLFqLiw-51" value="restaurant status closed" style="ellipse;whiteSpace=wrap;html=1;" vertex="1" parent="1">
          <mxGeometry x="550" y="250" width="107.5" height="50" as="geometry" />
        </mxCell>
        <mxCell id="Rky6-Vukg4qJPGLFqLiw-53" value="Extends" style="endArrow=block;endSize=16;endFill=0;html=1;entryX=1;entryY=0.5;entryDx=0;entryDy=0;exitX=0;exitY=0.5;exitDx=0;exitDy=0;" edge="1" parent="1" source="Rky6-Vukg4qJPGLFqLiw-51" target="Rky6-Vukg4qJPGLFqLiw-15">
          <mxGeometry width="160" relative="1" as="geometry">
            <mxPoint x="540" y="469.5" as="sourcePoint" />
            <mxPoint x="700" y="469.5" as="targetPoint" />
          </mxGeometry>
        </mxCell>
        <mxCell id="Rky6-Vukg4qJPGLFqLiw-54" value="" style="endArrow=none;html=1;entryX=0;entryY=0.5;entryDx=0;entryDy=0;exitX=1;exitY=0.3333333333333333;exitDx=0;exitDy=0;exitPerimeter=0;" edge="1" parent="1" source="Rky6-Vukg4qJPGLFqLiw-7" target="Rky6-Vukg4qJPGLFqLiw-15">
          <mxGeometry width="50" height="50" relative="1" as="geometry">
            <mxPoint x="90" y="380" as="sourcePoint" />
            <mxPoint x="355" y="265" as="targetPoint" />
          </mxGeometry>
        </mxCell>
        <mxCell id="Rky6-Vukg4qJPGLFqLiw-55" value="" style="endArrow=none;html=1;exitX=1;exitY=0.3333333333333333;exitDx=0;exitDy=0;exitPerimeter=0;entryX=0;entryY=0.5;entryDx=0;entryDy=0;" edge="1" parent="1" source="Rky6-Vukg4qJPGLFqLiw-7" target="Rky6-Vukg4qJPGLFqLiw-19">
          <mxGeometry width="50" height="50" relative="1" as="geometry">
            <mxPoint x="170" y="400" as="sourcePoint" />
            <mxPoint x="300" y="450" as="targetPoint" />
          </mxGeometry>
        </mxCell>
        <mxCell id="Rky6-Vukg4qJPGLFqLiw-59" value="&amp;lt;&amp;lt;include&amp;gt;&amp;gt;" style="edgeStyle=none;html=1;endArrow=open;verticalAlign=bottom;dashed=1;labelBackgroundColor=none;exitX=1;exitY=0.5;exitDx=0;exitDy=0;" edge="1" parent="1" source="Rky6-Vukg4qJPGLFqLiw-19" target="Rky6-Vukg4qJPGLFqLiw-17">
          <mxGeometry width="160" relative="1" as="geometry">
            <mxPoint x="340" y="400" as="sourcePoint" />
            <mxPoint x="500" y="400" as="targetPoint" />
          </mxGeometry>
        </mxCell>
        <mxCell id="Rky6-Vukg4qJPGLFqLiw-61" value="" style="endArrow=none;html=1;exitX=0.983;exitY=0.5;exitDx=0;exitDy=0;exitPerimeter=0;entryX=0;entryY=0.3333333333333333;entryDx=0;entryDy=0;entryPerimeter=0;" edge="1" parent="1" source="Rky6-Vukg4qJPGLFqLiw-26" target="Rky6-Vukg4qJPGLFqLiw-8">
          <mxGeometry width="50" height="50" relative="1" as="geometry">
            <mxPoint x="450.63" y="640" as="sourcePoint" />
            <mxPoint x="710" y="710" as="targetPoint" />
          </mxGeometry>
        </mxCell>
        <mxCell id="Rky6-Vukg4qJPGLFqLiw-62" value="" style="endArrow=none;html=1;exitX=1;exitY=0.3333333333333333;exitDx=0;exitDy=0;exitPerimeter=0;entryX=0;entryY=0.5;entryDx=0;entryDy=0;" edge="1" parent="1" source="Rky6-Vukg4qJPGLFqLiw-36" target="Rky6-Vukg4qJPGLFqLiw-46">
          <mxGeometry width="50" height="50" relative="1" as="geometry">
            <mxPoint x="160" y="940" as="sourcePoint" />
            <mxPoint x="340" y="1000" as="targetPoint" />
          </mxGeometry>
        </mxCell>
        <mxCell id="Rky6-Vukg4qJPGLFqLiw-63" value="" style="endArrow=none;html=1;entryX=0;entryY=0.5;entryDx=0;entryDy=0;exitX=1;exitY=0.3333333333333333;exitDx=0;exitDy=0;exitPerimeter=0;" edge="1" parent="1" source="Rky6-Vukg4qJPGLFqLiw-36" target="Rky6-Vukg4qJPGLFqLiw-40">
          <mxGeometry width="50" height="50" relative="1" as="geometry">
            <mxPoint x="160" y="940" as="sourcePoint" />
            <mxPoint x="411.25" y="830" as="targetPoint" />
          </mxGeometry>
        </mxCell>
        <mxCell id="Rky6-Vukg4qJPGLFqLiw-64" value="" style="endArrow=none;html=1;exitX=1;exitY=0.5;exitDx=0;exitDy=0;entryX=0;entryY=0.3333333333333333;entryDx=0;entryDy=0;entryPerimeter=0;" edge="1" parent="1" source="Rky6-Vukg4qJPGLFqLiw-28" target="Rky6-Vukg4qJPGLFqLiw-8">
          <mxGeometry width="50" height="50" relative="1" as="geometry">
            <mxPoint x="460.6724999999999" y="640" as="sourcePoint" />
            <mxPoint x="710" y="710" as="targetPoint" />
          </mxGeometry>
        </mxCell>
        <mxCell id="Rky6-Vukg4qJPGLFqLiw-65" value="" style="endArrow=none;html=1;exitX=1;exitY=0.5;exitDx=0;exitDy=0;entryX=0;entryY=0.3333333333333333;entryDx=0;entryDy=0;entryPerimeter=0;" edge="1" parent="1" source="Rky6-Vukg4qJPGLFqLiw-30" target="Rky6-Vukg4qJPGLFqLiw-8">
          <mxGeometry width="50" height="50" relative="1" as="geometry">
            <mxPoint x="462.5" y="710" as="sourcePoint" />
            <mxPoint x="720" y="720" as="targetPoint" />
          </mxGeometry>
        </mxCell>
        <mxCell id="Rky6-Vukg4qJPGLFqLiw-69" value="" style="endArrow=none;html=1;entryX=0;entryY=0.5;entryDx=0;entryDy=0;exitX=1;exitY=0.3333333333333333;exitDx=0;exitDy=0;exitPerimeter=0;" edge="1" parent="1" source="Rky6-Vukg4qJPGLFqLiw-7" target="Rky6-Vukg4qJPGLFqLiw-21">
          <mxGeometry width="50" height="50" relative="1" as="geometry">
            <mxPoint x="150" y="260" as="sourcePoint" />
            <mxPoint x="357.5" y="380" as="targetPoint" />
          </mxGeometry>
        </mxCell>
        <mxCell id="Rky6-Vukg4qJPGLFqLiw-75" value="verify Menu" style="ellipse;whiteSpace=wrap;html=1;" vertex="1" parent="1">
          <mxGeometry x="351.25" y="900" width="107.5" height="40" as="geometry" />
        </mxCell>
        <mxCell id="Rky6-Vukg4qJPGLFqLiw-77" value="include price and Item" style="ellipse;whiteSpace=wrap;html=1;" vertex="1" parent="1">
          <mxGeometry x="530" y="895" width="120" height="50" as="geometry" />
        </mxCell>
        <mxCell id="Rky6-Vukg4qJPGLFqLiw-79" value="&amp;lt;&amp;lt;include&amp;gt;&amp;gt;" style="edgeStyle=none;html=1;endArrow=open;verticalAlign=bottom;dashed=1;labelBackgroundColor=none;entryX=0;entryY=0.5;entryDx=0;entryDy=0;exitX=1;exitY=0.5;exitDx=0;exitDy=0;" edge="1" parent="1" source="Rky6-Vukg4qJPGLFqLiw-40" target="Rky6-Vukg4qJPGLFqLiw-42">
          <mxGeometry width="160" relative="1" as="geometry">
            <mxPoint x="463.75" y="820" as="sourcePoint" />
            <mxPoint x="520" y="820" as="targetPoint" />
          </mxGeometry>
        </mxCell>
        <mxCell id="Rky6-Vukg4qJPGLFqLiw-83" value="&amp;lt;&amp;lt;include&amp;gt;&amp;gt;" style="edgeStyle=none;html=1;endArrow=open;verticalAlign=bottom;dashed=1;labelBackgroundColor=none;exitX=1;exitY=0.5;exitDx=0;exitDy=0;entryX=0.047;entryY=0.5;entryDx=0;entryDy=0;entryPerimeter=0;" edge="1" parent="1" source="Rky6-Vukg4qJPGLFqLiw-75" target="Rky6-Vukg4qJPGLFqLiw-77">
          <mxGeometry x="-0.0667" width="160" relative="1" as="geometry">
            <mxPoint x="463.75" y="869.5" as="sourcePoint" />
            <mxPoint x="530" y="870" as="targetPoint" />
            <mxPoint as="offset" />
          </mxGeometry>
        </mxCell>
        <mxCell id="Rky6-Vukg4qJPGLFqLiw-84" value="restaurant not found" style="ellipse;whiteSpace=wrap;html=1;" vertex="1" parent="1">
          <mxGeometry x="540" y="185" width="107.5" height="50" as="geometry" />
        </mxCell>
        <mxCell id="Rky6-Vukg4qJPGLFqLiw-88" value="" style="endArrow=none;html=1;entryX=0;entryY=0.5;entryDx=0;entryDy=0;" edge="1" parent="1" target="Rky6-Vukg4qJPGLFqLiw-75">
          <mxGeometry width="50" height="50" relative="1" as="geometry">
            <mxPoint x="160" y="920" as="sourcePoint" />
            <mxPoint x="210" y="870" as="targetPoint" />
          </mxGeometry>
        </mxCell>
        <mxCell id="Rky6-Vukg4qJPGLFqLiw-89" value="" style="endArrow=none;html=1;entryX=0;entryY=1;entryDx=0;entryDy=0;" edge="1" parent="1" target="Rky6-Vukg4qJPGLFqLiw-10">
          <mxGeometry width="50" height="50" relative="1" as="geometry">
            <mxPoint x="160" y="920" as="sourcePoint" />
            <mxPoint x="290" y="510" as="targetPoint" />
          </mxGeometry>
        </mxCell>
        <mxCell id="Rky6-Vukg4qJPGLFqLiw-90" value="" style="endArrow=none;html=1;" edge="1" parent="1" source="Rky6-Vukg4qJPGLFqLiw-8" target="Rky6-Vukg4qJPGLFqLiw-10">
          <mxGeometry width="50" height="50" relative="1" as="geometry">
            <mxPoint x="740" y="600" as="sourcePoint" />
            <mxPoint x="750" y="520" as="targetPoint" />
          </mxGeometry>
        </mxCell>
        <mxCell id="Rky6-Vukg4qJPGLFqLiw-91" value="" style="endArrow=none;html=1;" edge="1" parent="1">
          <mxGeometry width="50" height="50" relative="1" as="geometry">
            <mxPoint x="40" y="1080" as="sourcePoint" />
            <mxPoint x="40" y="40" as="targetPoint" />
          </mxGeometry>
        </mxCell>
        <mxCell id="Rky6-Vukg4qJPGLFqLiw-92" value="" style="endArrow=none;html=1;" edge="1" parent="1">
          <mxGeometry width="50" height="50" relative="1" as="geometry">
            <mxPoint x="800" y="1080" as="sourcePoint" />
            <mxPoint x="800" y="40" as="targetPoint" />
          </mxGeometry>
        </mxCell>
        <mxCell id="Rky6-Vukg4qJPGLFqLiw-93" value="" style="endArrow=none;html=1;" edge="1" parent="1">
          <mxGeometry width="50" height="50" relative="1" as="geometry">
            <mxPoint x="40" y="1080" as="sourcePoint" />
            <mxPoint x="800" y="1080" as="targetPoint" />
          </mxGeometry>
        </mxCell>
        <mxCell id="Rky6-Vukg4qJPGLFqLiw-8" value="Owner" style="shape=umlActor;html=1;verticalLabelPosition=bottom;verticalAlign=top;align=center;" vertex="1" parent="1">
          <mxGeometry x="710" y="570" width="30" height="60" as="geometry" />
        </mxCell>
        <mxCell id="Rky6-Vukg4qJPGLFqLiw-94" value="" style="endArrow=none;html=1;" edge="1" parent="1" target="Rky6-Vukg4qJPGLFqLiw-8">
          <mxGeometry width="50" height="50" relative="1" as="geometry">
            <mxPoint x="740" y="600" as="sourcePoint" />
            <mxPoint x="439.06577599522393" y="462.34155408065" as="targetPoint" />
          </mxGeometry>
        </mxCell>
        <mxCell id="Rky6-Vukg4qJPGLFqLiw-95" value="" style="endArrow=none;html=1;" edge="1" parent="1">
          <mxGeometry width="50" height="50" relative="1" as="geometry">
            <mxPoint x="40" y="40" as="sourcePoint" />
            <mxPoint x="800" y="40" as="targetPoint" />
          </mxGeometry>
        </mxCell>
        <mxCell id="Rky6-Vukg4qJPGLFqLiw-96" value="" style="endArrow=none;html=1;" edge="1" parent="1">
          <mxGeometry width="50" height="50" relative="1" as="geometry">
            <mxPoint x="760" y="440" as="sourcePoint" />
            <mxPoint x="760" y="80" as="targetPoint" />
          </mxGeometry>
        </mxCell>
        <mxCell id="Rky6-Vukg4qJPGLFqLiw-97" value="" style="endArrow=none;html=1;" edge="1" parent="1">
          <mxGeometry width="50" height="50" relative="1" as="geometry">
            <mxPoint x="80" y="440" as="sourcePoint" />
            <mxPoint x="760" y="440" as="targetPoint" />
          </mxGeometry>
        </mxCell>
        <mxCell id="Rky6-Vukg4qJPGLFqLiw-98" value="" style="endArrow=none;html=1;" edge="1" parent="1">
          <mxGeometry width="50" height="50" relative="1" as="geometry">
            <mxPoint x="80" y="440" as="sourcePoint" />
            <mxPoint x="80" y="80" as="targetPoint" />
          </mxGeometry>
        </mxCell>
        <mxCell id="Rky6-Vukg4qJPGLFqLiw-99" value="" style="endArrow=none;html=1;" edge="1" parent="1">
          <mxGeometry width="50" height="50" relative="1" as="geometry">
            <mxPoint x="80" y="80" as="sourcePoint" />
            <mxPoint x="760" y="80" as="targetPoint" />
          </mxGeometry>
        </mxCell>
        <mxCell id="Rky6-Vukg4qJPGLFqLiw-100" value="" style="endArrow=none;html=1;exitX=1;exitY=0.3333333333333333;exitDx=0;exitDy=0;exitPerimeter=0;entryX=0;entryY=0.5;entryDx=0;entryDy=0;" edge="1" parent="1" source="Rky6-Vukg4qJPGLFqLiw-7" target="Rky6-Vukg4qJPGLFqLiw-84">
          <mxGeometry width="50" height="50" relative="1" as="geometry">
            <mxPoint x="190" y="270" as="sourcePoint" />
            <mxPoint x="540" y="180" as="targetPoint" />
          </mxGeometry>
        </mxCell>
        <mxCell id="Rky6-Vukg4qJPGLFqLiw-101" value="" style="endArrow=none;html=1;" edge="1" parent="1">
          <mxGeometry width="50" height="50" relative="1" as="geometry">
            <mxPoint x="760" y="720" as="sourcePoint" />
            <mxPoint x="760" y="520" as="targetPoint" />
          </mxGeometry>
        </mxCell>
        <mxCell id="Rky6-Vukg4qJPGLFqLiw-102" value="" style="endArrow=none;html=1;" edge="1" parent="1">
          <mxGeometry width="50" height="50" relative="1" as="geometry">
            <mxPoint x="80" y="720" as="sourcePoint" />
            <mxPoint x="760" y="720" as="targetPoint" />
          </mxGeometry>
        </mxCell>
        <mxCell id="Rky6-Vukg4qJPGLFqLiw-103" value="" style="endArrow=none;html=1;" edge="1" parent="1">
          <mxGeometry width="50" height="50" relative="1" as="geometry">
            <mxPoint x="80" y="520" as="sourcePoint" />
            <mxPoint x="760" y="520" as="targetPoint" />
          </mxGeometry>
        </mxCell>
        <mxCell id="Rky6-Vukg4qJPGLFqLiw-104" value="" style="endArrow=none;html=1;" edge="1" parent="1">
          <mxGeometry width="50" height="50" relative="1" as="geometry">
            <mxPoint x="80" y="720" as="sourcePoint" />
            <mxPoint x="80" y="520" as="targetPoint" />
          </mxGeometry>
        </mxCell>
        <mxCell id="Rky6-Vukg4qJPGLFqLiw-106" value="" style="endArrow=none;html=1;" edge="1" parent="1">
          <mxGeometry width="50" height="50" relative="1" as="geometry">
            <mxPoint x="80" y="1040" as="sourcePoint" />
            <mxPoint x="760" y="1040" as="targetPoint" />
          </mxGeometry>
        </mxCell>
        <mxCell id="Rky6-Vukg4qJPGLFqLiw-107" value="" style="endArrow=none;html=1;" edge="1" parent="1">
          <mxGeometry width="50" height="50" relative="1" as="geometry">
            <mxPoint x="760" y="1040" as="sourcePoint" />
            <mxPoint x="760" y="800" as="targetPoint" />
          </mxGeometry>
        </mxCell>
        <mxCell id="Rky6-Vukg4qJPGLFqLiw-108" value="" style="endArrow=none;html=1;" edge="1" parent="1">
          <mxGeometry width="50" height="50" relative="1" as="geometry">
            <mxPoint x="80" y="800" as="sourcePoint" />
            <mxPoint x="760" y="800" as="targetPoint" />
          </mxGeometry>
        </mxCell>
        <mxCell id="Rky6-Vukg4qJPGLFqLiw-109" value="" style="endArrow=none;html=1;" edge="1" parent="1">
          <mxGeometry width="50" height="50" relative="1" as="geometry">
            <mxPoint x="80" y="1040" as="sourcePoint" />
            <mxPoint x="80" y="800" as="targetPoint" />
          </mxGeometry>
        </mxCell>
      </root>
    </mxGraphModel>
  </diagram>
</mxfile>
